<svg xmlns="http://www.w3.org/2000/svg" version="1.1" xmlns:xlink="http://www.w3.org/1999/xlink" xmlns:svgjs="http://svgjs.dev/svgjs" width="2000" height="383" viewBox="0 0 2000 383"><g transform="matrix(1,0,0,1,-1.2121212121213603,-2.3528080464694767)"><svg viewBox="0 0 396 76" data-background-color="#ffffff" preserveAspectRatio="xMidYMid meet" height="383" width="2000" xmlns="http://www.w3.org/2000/svg" xmlns:xlink="http://www.w3.org/1999/xlink"><g id="tight-bounds" transform="matrix(1,0,0,1,0.24000000000003752,0.46687574812449384)"><svg viewBox="0 0 395.5199999999999 75.06624850375103" height="75.06624850375103" width="395.5199999999999"><g><svg viewBox="0 0 456.3442198931552 86.61015527343748" height="75.06624850375103" width="395.5199999999999"><g><svg viewBox="0 0 456.3442198931552 86.61015527343748" height="86.61015527343748" width="456.3442198931552"><g id="textblocktransform"><svg viewBox="0 0 456.3442198931552 86.61015527343748" height="86.61015527343748" width="456.3442198931552" id="textblock"><g><svg viewBox="0 0 456.3442198931552 59.25292968749999" height="59.25292968749999" width="456.3442198931552"><g><svg><g></g><g></g></svg></g><g><svg><g><svg></svg></g><g></g></svg></g><g id="text-0"><svg viewBox="0 0 456.3442198931552 59.25292968749999" height="59.25292968749999" width="456.3442198931552"><g transform="matrix(1,0,0,1,0,11.560058593749998)"><svg width="116.064453125" viewBox="1.95 -29.3 116.06 29.54" height="29.541015624999996" data-palette-color="#000000"><path d="M24.71-22.66L24.71-22.66Q24.71-26.37 21.19-28.17L21.19-28.17Q18.9-29.3 15.67-29.3L15.67-29.3 1.95-29.3 1.95-28.03 5.86-28.03 5.86-1.27 1.95-1.27 1.95 0 15.82 0Q22.12 0 25.05-4L25.05-4Q26.56-6.1 26.56-8.59L26.56-8.59Q26.56-12.5 23.1-14.65L23.1-14.65Q21.48-15.58 19.38-15.97L19.38-15.97Q22.9-17.29 24.22-20.41L24.22-20.41Q24.71-21.58 24.71-22.66ZM10.06-28.03L14.5-28.03Q19.53-28.03 20.21-23.58L20.21-23.58Q20.31-22.95 20.31-22.27L20.31-22.27Q20.31-19.09 17.82-17.48L17.82-17.48Q16.36-16.55 14.4-16.55L14.4-16.55 10.06-16.55 10.06-28.03ZM10.06-15.23L15.33-15.23Q19.78-15.23 21.29-11.47L21.29-11.47Q21.88-10.11 21.88-8.5L21.88-8.5Q21.88-4.74 19.43-2.64L19.43-2.64Q17.82-1.27 15.58-1.27L15.58-1.27 10.06-1.27 10.06-15.23ZM52.49-20.51L53.46-20.51 53.22-29.3 30.71-29.3 30.71-28.03 34.62-28.03 34.62-1.27 30.71-1.27 30.71 0 53.22 0 53.46-8.79 52.49-8.79 51.8-6.49Q50.58-2.34 48.19-1.51L48.19-1.51Q47.46-1.27 46.63-1.27L46.63-1.27 38.82-1.27 38.82-14.4 48.87-14.4 48.87-15.82 38.82-15.82 38.82-28.03 46.63-28.03Q50.14-28.03 51.66-23.29L51.66-23.29Q51.76-23 51.8-22.8L51.8-22.8 52.49-20.51ZM75.29 0L85.83 0Q85.83-1.07 85.05-1.22L85.05-1.22Q84.81-1.27 84.57-1.27L84.57-1.27 82.91-1.27 71.72-29.3 69.92-29.3 58.98-1.27 55.9-1.27 55.9 0 64.59 0Q64.59-1.07 63.81-1.22L63.81-1.22Q63.57-1.27 63.33-1.27L63.33-1.27 60.93-1.27 64.59-10.74 74.8-10.74 78.46-1.27 75.29-1.27 75.29 0ZM69.67-23.97L74.26-12.16 65.13-12.16 69.67-23.97ZM108-29.3L108-28.03 112.15-28.03 112.15-6.15 93.6-29.3 86.81-29.3 86.81-28.03 90.72-28.03 90.72-1.27 86.81-1.27 86.81 0 96.82 0Q96.82-1.07 96.04-1.22L96.04-1.22Q95.79-1.27 95.55-1.27L95.55-1.27 92.67-1.27 92.67-23.88 111.86 0.24 114.1-0.24 114.1-28.03 118.01-28.03 118.01-29.3 108-29.3Z" opacity="1" transform="matrix(1,0,0,1,0,0)" fill="#000000" class="undefined-tk-0"></path></svg></g><g><svg xmlns="http://www.w3.org/2000/svg" xmlns:xlink="http://www.w3.org/1999/xlink" version="1.1" x="130.0537109375" y="0" viewBox="3.0216630761482914 5.633 63.95624008992666 58.734" style="enable-background:new 0 0 70 70;" xml:space="preserve" height="59.25292968749999" width="64.52130958431731" class="icon-dxe-0" data-fill-palette-color="accent" id="dxe-0"><path d="M35 5.633C28.452 5.633 23.125 13.015 23.125 22.087S28.452 38.541 34.999 38.541H35C41.548 38.541 46.875 31.161 46.875 22.087S41.548 5.633 35 5.633M25.125 22.087C25.125 15.01 28.621 9.116 33.216 7.882 31.633 11.236 29.087 18.544 34.366 22.862 36.838 24.881 37.586 27.817 36.59 31.59 36.008 33.791 34.978 35.663 34.472 36.502 29.272 36.097 25.125 29.797 25.125 22.087M36.917 36.263C39.078 32.122 40.713 25.468 35.633 21.313 30.856 17.406 34.466 9.735 35.563 7.675 40.747 8.107 44.876 14.395 44.876 22.087 44.875 29.097 41.448 34.952 36.917 36.263" fill="#9d5045" data-fill-palette-color="accent"></path><path d="M41 61.633C41.023 61.656 41.048 61.675 41.071 61.697L41.073 61.7C42.863 63.45 45.296 64.367 48.092 64.367 48.874 64.367 49.685 64.295 50.516 64.151 54.232 63.504 57.966 61.46 61.032 58.395 67.447 51.98 68.899 42.995 64.27 38.365 59.64 33.734 50.653 35.185 44.238 41.601 37.822 48.017 36.37 57.003 41 61.633M59.618 56.981C56.84 59.758 53.488 61.604 50.174 62.181 47.792 62.594 45.652 62.308 43.964 61.378 48.42 59.98 54.284 56.431 53.63 49.9 53.015 43.76 60.992 40.887 63.225 40.207 66.584 44.177 65.055 51.543 59.618 56.98M45.652 43.016C49.157 39.512 53.466 37.625 57.15 37.625 58.727 37.625 60.185 37.979 61.42 38.692 57.93 39.943 50.96 43.31 51.64 50.099 51.958 53.274 50.41 55.879 47.04 57.842 45.073 58.986 43.02 59.582 42.068 59.819 38.679 55.856 40.2 48.468 45.652 43.016" fill="#9d5045" data-fill-palette-color="accent"></path><path d="M5.73 38.364C1.1 42.994 2.553 51.98 8.968 58.395 12.033 61.46 15.768 63.505 19.484 64.151 20.316 64.295 21.126 64.367 21.908 64.367 24.704 64.367 27.137 63.45 28.926 61.7L28.93 61.697C28.952 61.674 28.978 61.656 29 61.633 33.63 57.003 32.178 48.017 25.762 41.602 19.346 35.186 10.36 33.733 5.73 38.364M19.826 62.18C16.513 61.604 13.16 59.758 10.382 56.981 4.944 51.543 3.416 44.176 6.775 40.207 9.008 40.887 16.985 43.758 16.37 49.899 15.716 56.431 21.58 59.98 26.036 61.38 24.346 62.31 22.206 62.595 19.826 62.18M24.348 43.016C29.8 48.468 31.321 55.856 27.931 59.82 26.98 59.582 24.926 58.986 22.961 57.842 19.59 55.879 18.042 53.274 18.36 50.099 19.04 43.313 12.073 39.945 8.581 38.693 12.705 36.316 19.344 38.012 24.348 43.016" fill="#9d5045" data-fill-palette-color="accent"></path></svg></g><g transform="matrix(1,0,0,1,208.5642783343173,11.071777343749996)"><svg width="247.7799415588379" viewBox="1.95 -29.79 247.7657228088379 36.629999999999995" height="36.62109375" data-palette-color="#000000"><g transform="matrix(1,0,0,1,0,0)"><g><svg width="14.470481872558592" viewBox="1.78 -36.36 74.21 36.36" height="7.08984375" data-palette-color="#000000" id="scriptelement" x="235.2452409362793" y="-29.79"><path d="M12.91-30.02L1.78-30.02 1.78-36.36 31.64-36.36 31.64-30.02 20.51-30.02 20.51 0 12.91 0 12.91-30.02ZM36.57 0L36.57-36.36 46.06-36.36 56.07-11.93 56.5-11.93 66.51-36.36 75.99-36.36 75.99 0 68.53 0 68.53-23.67 68.23-23.67 58.82-0.18 53.74-0.18 44.33-23.76 44.03-23.76 44.03 0 36.57 0Z" opacity="1" transform="matrix(1,0,0,1,0,0)" fill="#000000" class="undefined-123" id="tk-123"></path></svg></g></g><path d="M24.71-22.66L24.71-22.66Q24.71-26.37 21.19-28.17L21.19-28.17Q18.9-29.3 15.67-29.3L15.67-29.3 1.95-29.3 1.95-28.03 5.86-28.03 5.86-1.27 1.95-1.27 1.95 0 15.82 0Q22.12 0 25.05-4L25.05-4Q26.56-6.1 26.56-8.59L26.56-8.59Q26.56-12.5 23.1-14.65L23.1-14.65Q21.48-15.58 19.38-15.97L19.38-15.97Q22.9-17.29 24.22-20.41L24.22-20.41Q24.71-21.58 24.71-22.66ZM10.06-28.03L14.5-28.03Q19.53-28.03 20.21-23.58L20.21-23.58Q20.31-22.95 20.31-22.27L20.31-22.27Q20.31-19.09 17.82-17.48L17.82-17.48Q16.36-16.55 14.4-16.55L14.4-16.55 10.06-16.55 10.06-28.03ZM10.06-15.23L15.33-15.23Q19.78-15.23 21.29-11.47L21.29-11.47Q21.88-10.11 21.88-8.5L21.88-8.5Q21.88-4.74 19.43-2.64L19.43-2.64Q17.82-1.27 15.58-1.27L15.58-1.27 10.06-1.27 10.06-15.23ZM46.09-29.79L46.09-29.79Q40.23-29.79 36.03-25.93L36.03-25.93Q31.44-21.68 31.44-14.84L31.44-14.84Q31.44-6.93 36.86-2.64L36.86-2.64Q40.82 0.49 45.94 0.49L45.94 0.49Q51.71 0.49 55.86-3.42L55.86-3.42Q60.5-7.76 60.5-14.65L60.5-14.65Q60.5-22.71 54.88-26.9L54.88-26.9Q51.07-29.79 46.09-29.79ZM46.09-0.88L46.09-0.88Q39.01-0.88 37.01-8.45L37.01-8.45Q36.33-11.13 36.33-14.65L36.33-14.65Q36.33-26.27 43.36-28.13L43.36-28.13Q44.58-28.42 45.94-28.42L45.94-28.42Q55.56-28.32 55.61-14.84L55.61-14.84Q55.61-4.2 49.7-1.61L49.7-1.61Q48.04-0.88 46.09-0.88ZM63.67-29.3L63.67-28.03 67.57-28.03 67.57-10.99Q67.67 0.44 78.95 0.49L78.95 0.49Q87.54 0.49 89.35-6.54L89.35-6.54Q89.89-8.69 89.89-11.43L89.89-11.43 89.89-28.03 93.79-28.03 93.79-29.3 84.27-29.3 84.27-28.03 88.18-28.03 88.18-11.13Q88.18-1.66 81.15-0.93L81.15-0.93Q80.56-0.88 79.98-0.88L79.98-0.88Q74.02-0.88 72.46-5.91L72.46-5.91Q71.77-8.11 71.77-11.28L71.77-11.28 71.77-28.03 75.63-28.03 75.63-29.3 63.67-29.3ZM101.21 0L114.64 0Q114.64-1.07 113.86-1.22L113.86-1.22Q113.62-1.27 113.37-1.27L113.37-1.27 110.05-1.27 110.05-28.03 112.88-28.03Q116.84-28.03 118.16-23.24L118.16-23.24Q118.16-23.05 118.21-22.95L118.21-22.95 118.99-19.68 120.35-19.68 120.11-29.3 95.99-29.3 95.74-19.68 97.11-19.68 97.89-22.95Q99.46-27.73 103.22-28.03L103.22-28.03 105.85-28.03 105.85-1.27 101.21-1.27 101.21 0ZM124.01 0L135.98 0Q135.98-1.07 135.2-1.22L135.2-1.22Q134.95-1.27 134.71-1.27L134.71-1.27 132.12-1.27 132.12-28.03 135.98-28.03 135.98-29.3 124.01-29.3 124.01-28.03 127.92-28.03 127.92-1.27 124.01-1.27 124.01 0ZM155.36-29.79L155.36-29.79Q149.45-29.79 145.25-25.88L145.25-25.88Q140.71-21.63 140.71-14.7L140.71-14.7Q140.71-7.08 146.03-2.73L146.03-2.73Q150.04 0.49 155.21 0.49L155.21 0.49Q157.12 0.49 159.17-0.05L159.17-0.05Q161.41 3.76 162.44 4.83L162.44 4.83Q164.34 6.79 166.49 6.84L166.49 6.84Q170.45 6.74 172.94 1.17L172.94 1.17 171.91 0.59Q169.32 3.61 167.08 3.66L167.08 3.66Q165.08 3.66 162.59 0.59L162.59 0.59Q162.24 0.15 161.46-0.88L161.46-0.88Q166.93-3.42 168.88-9.23L168.88-9.23Q169.76-11.82 169.76-14.79L169.76-14.79Q169.76-22.61 164.29-26.81L164.29-26.81Q160.39-29.79 155.36-29.79ZM154.63-5.81L154.63-5.81Q151.84-5.76 149.69-2.69L149.69-2.69Q145.59-6.01 145.59-14.7L145.59-14.7Q145.59-26.46 152.92-28.17L152.92-28.17Q154.09-28.42 155.31-28.42L155.31-28.42Q163.17-28.42 164.59-19.19L164.59-19.19Q164.88-17.19 164.88-14.89L164.88-14.89Q164.83-5.52 160.29-2.34L160.29-2.34Q157.41-5.76 154.63-5.81ZM155.21-0.88L155.21-0.88Q152.72-0.88 150.82-1.9L150.82-1.9Q152.67-4.05 154.48-4.1L154.48-4.1Q156.43-4.05 158.29-1.37L158.29-1.37Q156.92-0.88 155.21-0.88ZM172.93-29.3L172.93-28.03 176.84-28.03 176.84-10.99Q176.94 0.44 188.22 0.49L188.22 0.49Q196.81 0.49 198.62-6.54L198.62-6.54Q199.15-8.69 199.15-11.43L199.15-11.43 199.15-28.03 203.06-28.03 203.06-29.3 193.54-29.3 193.54-28.03 197.45-28.03 197.45-11.13Q197.45-1.66 190.41-0.93L190.41-0.93Q189.83-0.88 189.24-0.88L189.24-0.88Q183.29-0.88 181.72-5.91L181.72-5.91Q181.04-8.11 181.04-11.28L181.04-11.28 181.04-28.03 184.9-28.03 184.9-29.3 172.93-29.3ZM227.03-20.51L228.01-20.51 227.77-29.3 205.26-29.3 205.26-28.03 209.16-28.03 209.16-1.27 205.26-1.27 205.26 0 227.77 0 228.01-8.79 227.03-8.79 226.35-6.49Q225.13-2.34 222.74-1.51L222.74-1.51Q222-1.27 221.17-1.27L221.17-1.27 213.36-1.27 213.36-14.4 223.42-14.4 223.42-15.82 213.36-15.82 213.36-28.03 221.17-28.03Q224.69-28.03 226.2-23.29L226.2-23.29Q226.3-23 226.35-22.8L226.35-22.8 227.03-20.51Z" opacity="1" transform="matrix(1,0,0,1,0,0)" fill="#000000" class="undefined-tk-1"></path></svg></g></svg></g></svg></g><g transform="matrix(1,0,0,1,208.43730855019638,66.2268544921875)"><svg viewBox="0 0 247.9069113429588 20.383300781249996" height="20.383300781249996" width="247.9069113429588"><g transform="matrix(1,0,0,1,0,0)"><svg width="247.9069113429588" viewBox="-0.85 -33.2 528.38 43.45" height="20.383300781249996" data-palette-color="#000000"><path d="M39.55-21.4L39.55-21.4Q37.7-20.65 36.38-20.65 35.05-20.65 35.05-21.2L35.05-21.2Q35.05-21.55 36.52-21.6 38-21.65 38.65-21.95L38.65-21.95Q40.55-22.95 40.55-24.9L40.55-24.9Q40.55-25.9 40-27L40-27Q38.4-29.85 32.25-29.85L32.25-29.85Q28.7-29.85 25.15-28.78 21.6-27.7 19.2-25.48 16.8-23.25 16.8-21.35L16.8-21.35Q16.8-18.45 22.55-17.1L22.55-17.1 28.45-16Q32-15.35 33.75-14.2L33.75-14.2Q36.05-12.8 36.05-10.2L36.05-10.2Q36.05-9.15 35.7-7.95L35.7-7.95Q34.1-2.55 27.45 0.3L27.45 0.3Q21.9 2.75 14.35 2.75L14.35 2.75Q12.2 2.75 10.6 2.55L10.6 2.55Q12.2 3.45 14.8 4.1L14.8 4.1Q15 4.15 15 4.3L15 4.3Q15 4.75 13.95 4.75L13.95 4.75Q11.9 4.75 8.85 2.3L8.85 2.3Q4.7 1.65 2.65 0L2.65 0Q1.35-1.05 0.25-3.1-0.85-5.15-0.85-6.8-0.85-8.45-0.2-9.55L-0.2-9.55Q1.3-12.2 3.6-12.2L3.6-12.2Q5.35-12.2 5.65-9.25L5.65-9.25Q6.35-3.55 6.6-2.75L6.6-2.75Q7.35-0.3 9.15 1.4L9.15 1.4Q11.25 1.85 13.7 1.85L13.7 1.85Q19.1 1.85 24.3-0.3 29.5-2.45 31.8-6.4L31.8-6.4Q32.75-7.95 32.75-9.15L32.75-9.15Q32.75-11.5 28.6-12.8L28.6-12.8 19.8-14.8Q17.1-15.45 15.48-16.95 13.85-18.45 13.85-20.4L13.85-20.4Q13.85-23.4 17.6-26.4L17.6-26.4Q20.45-28.7 24.58-29.98 28.7-31.25 32.68-31.25 36.65-31.25 39.25-30.1L39.25-30.1Q42.6-28.55 42.6-25.58 42.6-22.6 39.55-21.4ZM7.35 0.9L7.35 0.9Q4.45-2.3 3.65-7.85L3.65-7.85Q3.2-11 2.8-11 2.4-11 2.05-10.78 1.7-10.55 1.35-9.8 1-9.05 1-7.85L1-7.85Q1-4 3.7-1.25L3.7-1.25Q5.05 0.15 7.35 0.9ZM54-14.95L54-14.95 54.7-15.1Q55.25-15.1 55.75-14.65 56.25-14.2 56.25-13.95 56.25-13.7 53.15-9.13 50.05-4.55 50.05-2.75L50.05-2.75Q50.05-2.6 50.1-2.45L50.1-2.45Q50.35-1.3 51.2-1.3L51.2-1.3Q53.8-1.3 60.7-9.9L60.7-9.9Q60.85-10.1 61.05-10.1 61.25-10.1 61.25-9.73 61.25-9.35 60.8-8.75L60.8-8.75Q54.4-0.2 51.05-0.2L51.05-0.2Q50.6-0.2 50.2-0.35L50.2-0.35Q48-1.2 48-3.65L48-3.65Q48-4.5 48.2-5.35L48.2-5.35 45.1-2.35Q42.15 0.25 40.82 0.25 39.5 0.25 38.3-0.6L38.3-0.6Q36.95-1.6 36.95-3.25L36.95-3.25Q36.95-6.9 42.05-11.98 47.15-17.05 51.4-17.05L51.4-17.05Q53.05-17.05 53.6-15.9L53.6-15.9Q53.75-15.5 53.85-15.23 53.95-14.95 54-14.95ZM39.05-2.65L39.05-2.65Q39.05-0.85 40.3-0.85L40.3-0.85Q43.2-0.85 48.2-7.2L48.2-7.2 53.5-14.5Q53.1-15.2 52.2-15.2L52.2-15.2Q49.15-15.2 44.1-10.48 39.05-5.75 39.05-2.65ZM71.55-19.65L71.55-19.65Q73.05-19.65 74.09-18.65 75.15-17.65 75.15-15.85L75.15-15.85Q75.15-11.9 68.59-5.95L68.59-5.95Q63.05-0.95 59.65 0.15L59.65 0.15Q59.1 0.15 58.2-0.45 57.3-1.05 57.3-1.55L57.3-1.55Q57.3-2.65 59.7-9 62.1-15.35 63-16.1L63-16.1Q63.2-16.3 63.65-16.3 64.09-16.3 64.59-15.83 65.09-15.35 65.15-14.7L65.15-14.7Q65.15-14.65 62.67-8.9 60.2-3.15 60.35-2.05L60.35-2.05Q62.5-2.7 68.02-7.3 73.55-11.9 73.55-15.55L73.55-15.55Q73.55-17.75 71.34-18.75L71.34-18.75Q71-18.9 71-19.2L71-19.2Q71-19.65 71.55-19.65ZM86.09-10.6L86.09-10.6Q86.09-8.85 82.74-4.75L82.74-4.75Q78.79 0.1 75.99 0.1L75.99 0.1 75.19 0.1Q73.89 0.1 73.14-1.25L73.14-1.25Q72.54-2.2 72.54-3.35L72.54-3.35Q72.54-6.35 76.92-11.78 81.29-17.2 83.99-17.2L83.99-17.2Q86.54-17.2 86.54-14.5L86.54-14.5Q86.54-13.8 86.29-12.7L86.29-12.7Q86.34-12.55 87.24-12.55 88.14-12.55 89.99-13.5L89.99-13.5Q89.94-12.65 86.04-11.05L86.04-11.05Q86.09-10.85 86.09-10.6ZM82.84-13.2L82.84-13.2Q81.14-13.2 78.02-9.2 74.89-5.2 74.89-3.3 74.89-1.4 76.09-1.4L76.09-1.4Q78.24-1.4 81.54-5.3 84.84-9.2 84.84-10.9L84.84-10.9Q84.04-11.35 82.84-13.2ZM97.29 0.25L97.29 0.25Q93.54 0.25 93.54-3.9L93.54-3.9Q93.54-6 94.64-8.5 95.74-11 97.04-12.7L97.04-12.7Q96.79-12.65 96.39-12.65L96.39-12.65Q95.19-12.65 94.39-14.35L94.39-14.35 90.69-9.55Q87.59-5.7 87.09-5.7L87.09-5.7Q86.84-5.7 86.84-5.9L86.84-5.9Q86.84-6.4 87.69-7.35L87.69-7.35Q92.04-12.4 93.84-15.9L93.84-15.9Q94.99-20.25 96.74-20.25L96.74-20.25Q97.89-20.25 97.89-19.25 97.89-18.25 96.64-16.7L96.64-16.7 95.44-15.1Q95.44-14.05 96.99-14.05L96.99-14.05Q97.89-14.05 98.99-14.7L98.99-14.7 100.29-15.5Q100.39-15.55 100.79-15.55 101.19-15.55 101.64-15.05 102.09-14.55 101.94-14.15L101.94-14.15 98.49-9.8Q95.29-5.7 95.29-3.33 95.29-0.95 97.49-0.95L97.49-0.95Q99.79-0.95 103.14-3.4L103.14-3.4Q105.14-4.85 106.79-6.65L106.79-6.65Q108.34-8.45 108.49-8.45L108.49-8.45Q108.84-8.45 108.84-8.08 108.84-7.7 108.39-7.2L108.39-7.2 106.79-5.4Q105.44-4 103.79-2.7L103.79-2.7Q99.84 0.25 97.29 0.25ZM129.74-16.1L129.74-16.1 136.94-16.2Q137.09-16.1 137.09-16.05L137.09-16.05Q137.09-15.6 130.86-14.8 124.64-14 124.14-13.85L124.14-13.85Q123.19-13 120.64-8.78 118.09-4.55 118.09-2.6L118.09-2.6Q118.09-0.75 120.64-0.75L120.64-0.75Q121.84-0.75 123.79-1.5 125.74-2.25 126.79-2.9L126.79-2.9Q129.59-4.65 132.79-8.05L132.79-8.05Q133.49-8.75 133.74-8.75L133.74-8.75Q133.89-8.75 133.89-8.45 133.89-8.15 133.14-7.25L133.14-7.25Q130.54-4.05 127.29-2.1L127.29-2.1Q123.39 0.3 119.84 0.3L119.84 0.3Q118.29 0.3 117.31-0.38 116.34-1.05 116.34-3.1 116.34-5.15 118.14-8.72 119.94-12.3 120.89-14.05L120.89-14.05Q120.19-13.9 119.69-13.9L119.69-13.9Q118.24-13.9 118.24-15.05L118.24-15.05Q118.24-15.9 119.44-16.25L119.44-16.25Q119.59-16.25 119.89-16.3L119.89-16.3 122.79-16.3Q123.69-17.45 124.84-18.95L124.84-18.95Q126.24-20.75 126.74-20.75 127.24-20.75 127.99-20.35 128.74-19.95 128.74-19.4 128.74-18.85 126.34-16.15L126.34-16.15Q127.64-16.1 129.74-16.1ZM143.38-0.2L143.38-0.2Q140.43-0.2 140.43-3.65L140.43-3.65Q140.43-5.6 141.81-7.98 143.18-10.35 145.18-13.55L145.18-13.55Q138.78-10.35 133.58-4.1L133.58-4.1Q130.68 0.25 130.18 0.25L130.18 0.25Q128.73 0.25 128.73-0.6L128.73-0.6Q128.73-1.05 129.33-2.2L129.33-2.2Q134.18-10.85 136.68-14.85L136.68-14.85Q142.63-24.4 145.08-25.2L145.08-25.2Q145.18-25.25 145.28-25.25L145.28-25.25Q145.93-25.25 146.18-24.2L146.18-24.2Q146.03-23.15 140.98-16.6L140.98-16.6Q135.73-9.95 135.03-7.9L135.03-7.9Q136.88-9.25 141.48-12.45L141.48-12.45Q146.43-15.9 148.03-15.9 149.63-15.9 149.63-14.65L149.63-14.65Q149.63-14.45 149.61-14.38 149.58-14.3 146.13-9.65 142.68-5 142.68-2.8L142.68-2.8Q142.68-1.65 143.53-1.65L143.53-1.65Q146.23-1.75 151.63-8.15L151.63-8.15Q152.08-8.6 152.31-8.6 152.53-8.6 152.53-8.3L152.53-8.3Q152.53-7.3 147.58-2.9L147.58-2.9Q144.48-0.2 143.38-0.2ZM152.88 0.65L152.88 0.65Q152.33 0.65 151.88 0.5L151.88 0.5Q148.68-0.4 148.68-3.1L148.68-3.1Q148.68-6.6 153.08-11.2 157.48-15.8 160.98-15.8L160.98-15.8Q162.13-15.8 162.86-15.18 163.58-14.55 163.58-13.65L163.58-13.65Q163.58-10.85 159.36-8.3 155.13-5.75 152.48-5.75L152.48-5.75Q152.08-5.75 151.78-5.85L151.78-5.85Q151.03-4.5 151.03-3L151.03-3Q151.03-0.4 153.51-0.4 155.98-0.4 159.93-3.75L159.93-3.75Q162.98-6.2 165.13-8.95L165.13-8.95Q165.58-9.55 165.91-9.55 166.23-9.55 166.23-9.25 166.23-8.95 165.83-8.4L165.83-8.4Q163.13-4.85 159.33-2.1 155.53 0.65 152.88 0.65ZM162.33-13.75L162.33-13.75Q162.33-14.35 161.06-14.35 159.78-14.35 157.43-12.4L157.43-12.4Q154.28-9.8 152.53-6.95L152.53-6.95Q152.83-6.85 153.18-6.85L153.18-6.85Q155.08-6.85 158.26-8.88 161.43-10.9 162.23-13.3L162.23-13.3Q162.33-13.55 162.33-13.75ZM198.28-20.35L198.28-20.35Q203.18-20.35 203.18-18.5L203.18-18.5Q203.18-18.1 202.88-17.6L202.88-17.6Q201.68-15.75 198.53-15.75L198.53-15.75Q196.48-15.75 194.33-16.48 192.18-17.2 191.08-18L191.08-18Q186.43-16.65 182.8-13.85 179.18-11.05 177.38-7.5L177.38-7.5Q176.43-5.6 176.43-3.8L176.43-3.8Q176.43-1 178.75 0.75 181.08 2.5 185.58 2.5L185.58 2.5Q186.83 2.5 188.18 2.35L188.18 2.35Q196.13 1.5 200.83-2.75L200.83-2.75Q204.78-6.25 204.78-10.1L204.78-10.1Q204.78-13.15 201.83-13.15L201.83-13.15Q198.28-13.15 193.68-9.35L193.68-9.35Q192.53-8.4 191.73-6.95 190.93-5.5 190.93-4.1 190.93-2.7 192.33-2.35L192.33-2.35Q192.83-2.15 192.83-1.85L192.83-1.85Q192.83-1.35 191.83-1.45L191.83-1.45Q189.43-1.5 189.43-4.6 189.43-7.7 192.58-10.4L192.58-10.4Q196.88-14.1 201.68-14.1L201.68-14.1Q205.28-14.1 206.23-11.85L206.23-11.85Q206.63-10.8 206.63-9.75L206.63-9.75Q206.63-5.1 201.48-1L201.48-1Q195.33 4 185.88 4L185.88 4Q180.03 4 176.63 1.83 173.23-0.35 173.23-3.85L173.23-3.85Q173.23-5.9 174.53-7.95L174.53-7.95Q179.13-15.25 190.23-18.8L190.23-18.8Q188.58-20.7 188.58-22.85 188.58-25 189.63-26.45L189.63-26.45Q191.68-29.25 195.78-31.05L195.78-31.05Q200.68-33.2 205.58-33.2L205.58-33.2Q208.43-33.2 210.15-32.27 211.88-31.35 211.88-29.43 211.88-27.5 210.45-26.18 209.03-24.85 207.48-24.85 205.93-24.85 205.93-25.6L205.93-25.6Q205.93-26.05 206.58-26.05L206.58-26.05 207.58-25.9Q208.58-25.9 209.4-26.98 210.23-28.05 210.23-29.2L210.23-29.2Q210.23-30.9 208.28-31.7L208.28-31.7Q207.03-32.2 205.93-32.2 204.83-32.2 204.38-32.15L204.38-32.15Q200.08-31.9 195.98-29.15L195.98-29.15Q191.18-26 191.18-22.05L191.18-22.05Q191.18-20.6 192.18-19.35L192.18-19.35Q195.38-20.35 198.28-20.35ZM193.03-18.55L193.03-18.55Q195.18-16.85 197.98-16.85 200.78-16.85 200.78-18.4L200.78-18.4Q200.78-19.1 198.28-19.1 195.78-19.1 193.03-18.55ZM218.42-1.8L216.82-0.75Q215.37 0.1 213.25 0.1 211.12 0.1 210-1.3 208.87-2.7 208.07-5.75L208.07-5.75Q207.17-4.85 206.82-4.85L206.82-4.85Q206.57-4.85 206.57-5.2 206.57-5.55 206.82-5.8L206.82-5.8Q208.47-7.85 212.42-11.7L212.42-11.7 218.72-17.6Q221.42-20.15 221.92-20.15L221.92-20.15Q223.52-20.15 223.52-18.95L223.52-18.95Q223.52-18.35 223.05-17.78 222.57-17.2 222.35-16.88 222.12-16.55 221.87-16.25L221.87-16.25Q220.97-14.7 220.05-9.85 219.12-5 218.62-3.1L218.62-3.1Q222.77-3.15 227.17-8.5L227.17-8.5Q227.67-9 227.92-9 228.17-9 228.17-8.68 228.17-8.35 227.72-7.8L227.72-7.8Q224.82-4.4 222.32-3.05L222.32-3.05Q220.82-2.3 218.42-1.8L218.42-1.8ZM210.07-6.3L210.07-6.3Q210.07-4.6 211.2-3.53 212.32-2.45 213.72-2.45 215.12-2.45 215.87-3L215.87-3Q216.87-3.55 217.85-7.6 218.82-11.65 219.02-14.75L219.02-14.75 219.22-16.45Q216.47-14.4 213.35-11.15 210.22-7.9 210.12-6.85L210.12-6.85Q210.07-6.55 210.07-6.3ZM236.37-1.8L234.77-0.75Q233.32 0.1 231.2 0.1 229.07 0.1 227.95-1.3 226.82-2.7 226.02-5.75L226.02-5.75Q225.12-4.85 224.77-4.85L224.77-4.85Q224.52-4.85 224.52-5.2 224.52-5.55 224.77-5.8L224.77-5.8Q226.42-7.85 230.37-11.7L230.37-11.7 236.67-17.6Q239.37-20.15 239.87-20.15L239.87-20.15Q241.47-20.15 241.47-18.95L241.47-18.95Q241.47-18.35 241-17.78 240.52-17.2 240.3-16.88 240.07-16.55 239.82-16.25L239.82-16.25Q238.92-14.7 238-9.85 237.07-5 236.57-3.1L236.57-3.1Q240.72-3.15 245.12-8.5L245.12-8.5Q245.62-9 245.87-9 246.12-9 246.12-8.68 246.12-8.35 245.67-7.8L245.67-7.8Q242.77-4.4 240.27-3.05L240.27-3.05Q238.77-2.3 236.37-1.8L236.37-1.8ZM228.02-6.3L228.02-6.3Q228.02-4.6 229.15-3.53 230.27-2.45 231.67-2.45 233.07-2.45 233.82-3L233.82-3Q234.82-3.55 235.8-7.6 236.77-11.65 236.97-14.75L236.97-14.75 237.17-16.45Q234.42-14.4 231.3-11.15 228.17-7.9 228.07-6.85L228.07-6.85Q228.02-6.55 228.02-6.3ZM246.07 0.65L246.07 0.65Q245.52 0.65 245.07 0.5L245.07 0.5Q241.87-0.4 241.87-3.1L241.87-3.1Q241.87-6.6 246.27-11.2 250.67-15.8 254.17-15.8L254.17-15.8Q255.32-15.8 256.04-15.18 256.77-14.55 256.77-13.65L256.77-13.65Q256.77-10.85 252.54-8.3 248.32-5.75 245.67-5.75L245.67-5.75Q245.27-5.75 244.97-5.85L244.97-5.85Q244.22-4.5 244.22-3L244.22-3Q244.22-0.4 246.69-0.4 249.17-0.4 253.12-3.75L253.12-3.75Q256.17-6.2 258.32-8.95L258.32-8.95Q258.77-9.55 259.09-9.55 259.42-9.55 259.42-9.25 259.42-8.95 259.02-8.4L259.02-8.4Q256.32-4.85 252.52-2.1 248.72 0.65 246.07 0.65ZM255.52-13.75L255.52-13.75Q255.52-14.35 254.24-14.35 252.97-14.35 250.62-12.4L250.62-12.4Q247.47-9.8 245.72-6.95L245.72-6.95Q246.02-6.85 246.37-6.85L246.37-6.85Q248.27-6.85 251.44-8.88 254.62-10.9 255.42-13.3L255.42-13.3Q255.52-13.55 255.52-13.75ZM264.42-15.8L264.42-15.8Q265.77-15.8 265.77-14.75L265.77-14.75Q265.77-14.45 265.62-14.15L265.62-14.15Q261.12-7.9 260.22-4.7L260.22-4.7Q271.87-16.35 274.37-16.35L274.37-16.35Q274.62-16.4 274.82-16.4L274.82-16.4Q276.22-16.4 276.22-15.15L276.22-15.15Q276.22-14.9 276.12-14.65 276.02-14.4 274.12-11.95L274.12-11.95Q271.92-9.35 270.39-6.95 268.87-4.55 268.87-2.95 268.87-1.35 269.57-1.35L269.57-1.35Q271.77-1.35 277.22-7.4L277.22-7.4Q277.32-7.5 277.57-7.85L277.57-7.85Q278.32-8.75 278.47-8.75 278.62-8.75 278.62-8.25 278.62-7.75 277.92-6.95L277.92-6.95Q271.72 0.1 269.12 0.1L269.12 0.1Q266.67 0.1 266.67-2.6 266.67-5.3 268.67-8.8L268.67-8.8 271.87-14Q268.47-11.5 265.82-8.53 263.17-5.55 260.99-2.75 258.82 0.05 258.47 0.05L258.47 0.05Q257.72 0.05 257.29-0.58 256.87-1.2 256.87-2.13 256.87-3.05 257.52-4.6 258.17-6.15 259.17-8.35L259.17-8.35 256.17-5.2Q255.07-4.1 254.79-4.1 254.52-4.1 254.52-4.42 254.52-4.75 254.92-5.15L254.92-5.15Q256.77-7 258.12-8.7L258.12-8.7Q259.42-10.4 263.47-15.2L263.47-15.2Q263.92-15.8 264.42-15.8ZM280.31 0.65L280.31 0.65Q279.76 0.65 279.31 0.5L279.31 0.5Q276.11-0.4 276.11-3.1L276.11-3.1Q276.11-6.6 280.51-11.2 284.91-15.8 288.41-15.8L288.41-15.8Q289.56-15.8 290.29-15.18 291.01-14.55 291.01-13.48 291.01-12.4 290.36-11.23 289.71-10.05 288.41-10.05 287.11-10.05 287.11-10.85L287.11-10.85Q287.11-11.4 287.79-12.53 288.46-13.65 288.46-13.73 288.46-13.8 288.31-13.8L288.31-13.8Q286.91-13.65 284.49-11.8 282.06-9.95 281.16-8.7L281.16-8.7 279.21-5.85Q278.71-5.05 278.49-3.95 278.26-2.85 278.26-2.3 278.26-1.75 278.89-1.05 279.51-0.35 280.66-0.35L280.66-0.35Q283.16-0.35 286.86-3.28 290.56-6.2 292.56-8.85L292.56-8.85Q292.81-9.15 293.16-9.15 293.51-9.15 293.51-8.95 293.51-8.75 293.26-8.45L293.26-8.45Q290.51-4.8 286.69-2.08 282.86 0.65 280.31 0.65ZM293.21 0.65L293.21 0.65Q292.66 0.65 292.21 0.5L292.21 0.5Q289.01-0.4 289.01-3.1L289.01-3.1Q289.01-6.6 293.41-11.2 297.81-15.8 301.31-15.8L301.31-15.8Q302.46-15.8 303.19-15.18 303.91-14.55 303.91-13.65L303.91-13.65Q303.91-10.85 299.69-8.3 295.46-5.75 292.81-5.75L292.81-5.75Q292.41-5.75 292.11-5.85L292.11-5.85Q291.36-4.5 291.36-3L291.36-3Q291.36-0.4 293.84-0.4 296.31-0.4 300.26-3.75L300.26-3.75Q303.31-6.2 305.46-8.95L305.46-8.95Q305.91-9.55 306.24-9.55 306.56-9.55 306.56-9.25 306.56-8.95 306.16-8.4L306.16-8.4Q303.46-4.85 299.66-2.1 295.86 0.65 293.21 0.65ZM302.66-13.75L302.66-13.75Q302.66-14.35 301.39-14.35 300.11-14.35 297.76-12.4L297.76-12.4Q294.61-9.8 292.86-6.95L292.86-6.95Q293.16-6.85 293.51-6.85L293.51-6.85Q295.41-6.85 298.59-8.88 301.76-10.9 302.56-13.3L302.56-13.3Q302.66-13.55 302.66-13.75ZM326.46-10.6L326.46-10.6Q326.46-8.85 323.11-4.75L323.11-4.75Q319.16 0.1 316.36 0.1L316.36 0.1 315.56 0.1Q314.26 0.1 313.51-1.25L313.51-1.25Q312.91-2.2 312.91-3.35L312.91-3.35Q312.91-6.35 317.28-11.78 321.66-17.2 324.36-17.2L324.36-17.2Q326.91-17.2 326.91-14.5L326.91-14.5Q326.91-13.8 326.66-12.7L326.66-12.7Q326.71-12.55 327.61-12.55 328.51-12.55 330.36-13.5L330.36-13.5Q330.31-12.65 326.41-11.05L326.41-11.05Q326.46-10.85 326.46-10.6ZM323.21-13.2L323.21-13.2Q321.51-13.2 318.38-9.2 315.26-5.2 315.26-3.3 315.26-1.4 316.46-1.4L316.46-1.4Q318.61-1.4 321.91-5.3 325.21-9.2 325.21-10.9L325.21-10.9Q324.41-11.35 323.21-13.2ZM347.85-24.45L347.85-24.45Q347.85-22.9 346.95-22.9L346.95-22.9Q346.7-22.9 346.45-23.3L346.45-23.3Q346-24.1 344.95-24.1L344.95-24.1Q342.65-24.1 340.65-20.8L340.65-20.8Q340.25-20.15 338.15-16.1L338.15-16.1 338.75-16.1Q344.2-16.1 346-16.25L346-16.25Q346.2-16.2 346.2-16.05L346.2-16.05Q346.2-15.65 342.65-14.95L342.65-14.95Q339.3-14.4 337.15-14L337.15-14Q335.6-10.8 333.4-6.4L333.4-6.4Q328.9 2 327.45 4.05L327.45 4.05Q323.1 10.25 318.95 10.25L318.95 10.25Q317.5 10.25 316.43 9.03 315.35 7.8 315.3 6.3L315.3 6.3Q315.45 5.7 315.75 5.7L315.75 5.7Q315.9 5.7 315.95 6.05L315.95 6.05Q316.25 7.35 316.95 8.05 317.65 8.75 318.4 8.75L318.4 8.75Q322.65 8.75 326.15 3.5L326.15 3.5Q328.15 0.5 331.6-7.3L331.6-7.3 334.3-13.8Q329.3-13.85 329.3-15L329.3-15Q329.3-15.5 329.78-15.85 330.25-16.2 330.6-16.2L330.6-16.2 335.3-16.1Q340.2-27 344.3-27L344.3-27Q345.85-27 347.45-25.5L347.45-25.5Q347.85-25.1 347.85-24.45ZM374.65-20.35L374.65-20.35Q379.55-20.35 379.55-18.5L379.55-18.5Q379.55-18.1 379.25-17.6L379.25-17.6Q378.05-15.75 374.9-15.75L374.9-15.75Q372.85-15.75 370.7-16.48 368.55-17.2 367.45-18L367.45-18Q362.8-16.65 359.17-13.85 355.55-11.05 353.75-7.5L353.75-7.5Q352.8-5.6 352.8-3.8L352.8-3.8Q352.8-1 355.12 0.75 357.45 2.5 361.95 2.5L361.95 2.5Q363.2 2.5 364.55 2.35L364.55 2.35Q372.5 1.5 377.2-2.75L377.2-2.75Q381.15-6.25 381.15-10.1L381.15-10.1Q381.15-13.15 378.2-13.15L378.2-13.15Q374.65-13.15 370.05-9.35L370.05-9.35Q368.9-8.4 368.1-6.95 367.3-5.5 367.3-4.1 367.3-2.7 368.7-2.35L368.7-2.35Q369.2-2.15 369.2-1.85L369.2-1.85Q369.2-1.35 368.2-1.45L368.2-1.45Q365.8-1.5 365.8-4.6 365.8-7.7 368.95-10.4L368.95-10.4Q373.25-14.1 378.05-14.1L378.05-14.1Q381.65-14.1 382.6-11.85L382.6-11.85Q383-10.8 383-9.75L383-9.75Q383-5.1 377.85-1L377.85-1Q371.7 4 362.25 4L362.25 4Q356.4 4 353 1.83 349.6-0.35 349.6-3.85L349.6-3.85Q349.6-5.9 350.9-7.95L350.9-7.95Q355.5-15.25 366.6-18.8L366.6-18.8Q364.95-20.7 364.95-22.85 364.95-25 366-26.45L366-26.45Q368.05-29.25 372.15-31.05L372.15-31.05Q377.05-33.2 381.95-33.2L381.95-33.2Q384.8-33.2 386.52-32.27 388.25-31.35 388.25-29.43 388.25-27.5 386.82-26.18 385.4-24.85 383.85-24.85 382.3-24.85 382.3-25.6L382.3-25.6Q382.3-26.05 382.95-26.05L382.95-26.05 383.95-25.9Q384.95-25.9 385.77-26.98 386.6-28.05 386.6-29.2L386.6-29.2Q386.6-30.9 384.65-31.7L384.65-31.7Q383.4-32.2 382.3-32.2 381.2-32.2 380.75-32.15L380.75-32.15Q376.45-31.9 372.35-29.15L372.35-29.15Q367.55-26 367.55-22.05L367.55-22.05Q367.55-20.6 368.55-19.35L368.55-19.35Q371.75-20.35 374.65-20.35ZM369.4-18.55L369.4-18.55Q371.55-16.85 374.35-16.85 377.15-16.85 377.15-18.4L377.15-18.4Q377.15-19.1 374.65-19.1 372.15-19.1 369.4-18.55ZM397.55-19.65L397.55-19.65Q399.05-19.65 400.1-18.65 401.15-17.65 401.15-15.85L401.15-15.85Q401.15-11.9 394.6-5.95L394.6-5.95Q389.05-0.95 385.65 0.15L385.65 0.15Q385.1 0.15 384.2-0.45 383.3-1.05 383.3-1.55L383.3-1.55Q383.3-2.65 385.7-9 388.1-15.35 389-16.1L389-16.1Q389.2-16.3 389.65-16.3 390.1-16.3 390.6-15.83 391.1-15.35 391.15-14.7L391.15-14.7Q391.15-14.65 388.67-8.9 386.2-3.15 386.35-2.05L386.35-2.05Q388.5-2.7 394.02-7.3 399.55-11.9 399.55-15.55L399.55-15.55Q399.55-17.75 397.35-18.75L397.35-18.75Q397-18.9 397-19.2L397-19.2Q397-19.65 397.55-19.65ZM401.59 0.65L401.59 0.65Q401.04 0.65 400.59 0.5L400.59 0.5Q397.39-0.4 397.39-3.1L397.39-3.1Q397.39-6.6 401.79-11.2 406.19-15.8 409.69-15.8L409.69-15.8Q410.84-15.8 411.57-15.18 412.29-14.55 412.29-13.65L412.29-13.65Q412.29-10.85 408.07-8.3 403.84-5.75 401.19-5.75L401.19-5.75Q400.79-5.75 400.49-5.85L400.49-5.85Q399.74-4.5 399.74-3L399.74-3Q399.74-0.4 402.22-0.4 404.69-0.4 408.64-3.75L408.64-3.75Q411.69-6.2 413.84-8.95L413.84-8.95Q414.29-9.55 414.62-9.55 414.94-9.55 414.94-9.25 414.94-8.95 414.54-8.4L414.54-8.4Q411.84-4.85 408.04-2.1 404.24 0.65 401.59 0.65ZM411.04-13.75L411.04-13.75Q411.04-14.35 409.77-14.35 408.49-14.35 406.14-12.4L406.14-12.4Q402.99-9.8 401.24-6.95L401.24-6.95Q401.54-6.85 401.89-6.85L401.89-6.85Q403.79-6.85 406.97-8.88 410.14-10.9 410.94-13.3L410.94-13.3Q411.04-13.55 411.04-13.75ZM422.09 0.25L422.09 0.25Q418.34 0.25 418.34-3.9L418.34-3.9Q418.34-6 419.44-8.5 420.54-11 421.84-12.7L421.84-12.7Q421.59-12.65 421.19-12.65L421.19-12.65Q419.99-12.65 419.19-14.35L419.19-14.35 415.49-9.55Q412.39-5.7 411.89-5.7L411.89-5.7Q411.64-5.7 411.64-5.9L411.64-5.9Q411.64-6.4 412.49-7.35L412.49-7.35Q416.84-12.4 418.64-15.9L418.64-15.9Q419.79-20.25 421.54-20.25L421.54-20.25Q422.69-20.25 422.69-19.25 422.69-18.25 421.44-16.7L421.44-16.7 420.24-15.1Q420.24-14.05 421.79-14.05L421.79-14.05Q422.69-14.05 423.79-14.7L423.79-14.7 425.09-15.5Q425.19-15.55 425.59-15.55 425.99-15.55 426.44-15.05 426.89-14.55 426.74-14.15L426.74-14.15 423.29-9.8Q420.09-5.7 420.09-3.33 420.09-0.95 422.29-0.95L422.29-0.95Q424.59-0.95 427.94-3.4L427.94-3.4Q429.94-4.85 431.59-6.65L431.59-6.65Q433.14-8.45 433.29-8.45L433.29-8.45Q433.64-8.45 433.64-8.08 433.64-7.7 433.19-7.2L433.19-7.2 431.59-5.4Q430.24-4 428.59-2.7L428.59-2.7Q424.64 0.25 422.09 0.25ZM428.79 5.8L428.79 5.8Q431.19 8.8 432.94 8.8L432.94 8.8Q435.79 8.8 439.09 4.25L439.09 4.25Q441.49 0.9 443.79-4.2L443.79-4.2 445.69-8.8 438.34-3.05Q434.94-0.4 432.89-0.4L432.89-0.4Q431.79-0.4 431.14-1.15 430.49-1.9 430.49-2.85L430.49-2.85Q430.49-5 434.19-9.93 437.89-14.85 439.59-14.85 441.29-14.85 441.29-13.7L441.29-13.7Q441.29-13.25 436.86-8.53 432.44-3.8 432.44-2.15L432.44-2.15Q432.44-1.5 433.29-1.5L433.29-1.5Q434.89-1.5 439.71-5.25 444.54-9 446.99-11.45L446.99-11.45Q447.54-12.1 448.54-13.4L448.54-13.4Q449.49-14.5 450.64-14.5 451.79-14.5 451.79-13.4L451.79-13.4Q451.79-13.2 449.54-9.85 447.29-6.5 447.19-6.3L447.19-6.3Q445.64-3.3 442.44 2.45L442.44 2.45Q437.59 10.25 432.74 10.25L432.74 10.25Q431.14 10.25 429.94 8.88 428.74 7.5 428.79 5.8ZM499.53-21.4L499.53-21.4Q497.68-20.65 496.36-20.65 495.03-20.65 495.03-21.2L495.03-21.2Q495.03-21.55 496.51-21.6 497.98-21.65 498.63-21.95L498.63-21.95Q500.53-22.95 500.53-24.9L500.53-24.9Q500.53-25.9 499.98-27L499.98-27Q498.38-29.85 492.23-29.85L492.23-29.85Q488.68-29.85 485.13-28.78 481.58-27.7 479.18-25.48 476.78-23.25 476.78-21.35L476.78-21.35Q476.78-18.45 482.53-17.1L482.53-17.1 488.43-16Q491.98-15.35 493.73-14.2L493.73-14.2Q496.03-12.8 496.03-10.2L496.03-10.2Q496.03-9.15 495.68-7.95L495.68-7.95Q494.08-2.55 487.43 0.3L487.43 0.3Q481.88 2.75 474.33 2.75L474.33 2.75Q472.18 2.75 470.58 2.55L470.58 2.55Q472.18 3.45 474.78 4.1L474.78 4.1Q474.98 4.15 474.98 4.3L474.98 4.3Q474.98 4.75 473.93 4.75L473.93 4.75Q471.88 4.75 468.83 2.3L468.83 2.3Q464.68 1.65 462.63 0L462.63 0Q461.33-1.05 460.23-3.1 459.13-5.15 459.13-6.8 459.13-8.45 459.78-9.55L459.78-9.55Q461.28-12.2 463.58-12.2L463.58-12.2Q465.33-12.2 465.63-9.25L465.63-9.25Q466.33-3.55 466.58-2.75L466.58-2.75Q467.33-0.3 469.13 1.4L469.13 1.4Q471.23 1.85 473.68 1.85L473.68 1.85Q479.08 1.85 484.28-0.3 489.48-2.45 491.78-6.4L491.78-6.4Q492.73-7.95 492.73-9.15L492.73-9.15Q492.73-11.5 488.58-12.8L488.58-12.8 479.78-14.8Q477.08-15.45 475.46-16.95 473.83-18.45 473.83-20.4L473.83-20.4Q473.83-23.4 477.58-26.4L477.58-26.4Q480.43-28.7 484.56-29.98 488.68-31.25 492.66-31.25 496.63-31.25 499.23-30.1L499.23-30.1Q502.58-28.55 502.58-25.58 502.58-22.6 499.53-21.4ZM467.33 0.9L467.33 0.9Q464.43-2.3 463.63-7.85L463.63-7.85Q463.18-11 462.78-11 462.38-11 462.03-10.78 461.68-10.55 461.33-9.8 460.98-9.05 460.98-7.85L460.98-7.85Q460.98-4 463.68-1.25L463.68-1.25Q465.03 0.15 467.33 0.9ZM508.23-20.4Q508.98-20.4 509.66-19.93 510.33-19.45 510.33-18.8 510.33-18.15 509.71-17.68 509.08-17.2 508.33-17.2 507.58-17.2 506.96-17.75 506.33-18.3 506.33-19L506.33-19Q506.33-20.4 508.23-20.4L508.23-20.4ZM499.18 0.55L499.18 0.55Q496.63 0.55 496.63-2.75L496.63-2.75Q496.63-5.45 499.58-10.23 502.53-15 504.33-15.05L504.33-15.05Q504.83-15.05 505.46-14.65 506.08-14.25 506.08-13.85L506.08-13.85Q505.83-13.5 505.48-13.08 505.13-12.65 504.73-12.15 504.33-11.65 503.63-10.73 502.93-9.8 502.28-8.95L502.28-8.95Q498.53-4.1 498.53-2.27 498.53-0.45 499.78-0.45L499.78-0.45Q500.83-0.45 502.63-1.6L502.63-1.6Q506.83-4.2 509.28-7.3L509.28-7.3Q510.18-8.45 510.51-8.45 510.83-8.45 510.83-8.05 510.83-7.65 509.68-6.45 508.53-5.25 507.86-4.55 507.18-3.85 506.93-3.63 506.68-3.4 506.01-2.78 505.33-2.15 504.98-1.9 504.63-1.65 503.98-1.15 503.33-0.65 502.83-0.43 502.33-0.2 501.68 0.1L501.68 0.1Q500.63 0.55 499.18 0.55ZM527.53-11.3L527.53-11.3Q527.53-7.25 522.9-3.63 518.28 0 514.88 0L514.88 0Q512.63 0 511.6-0.3 510.58-0.6 509.33-2.1L509.33-2.1Q508.48-1.4 507.03 1.48 505.58 4.35 505.58 6.4L505.58 6.4Q505.58 7.35 506.53 8.9L506.53 8.9Q506.63 9.15 506.38 9.33 506.13 9.5 506 9.5 505.88 9.5 505.78 9.45L505.78 9.45Q503.68 8.3 503.68 4.98 503.68 1.65 509.2-6.53 514.73-14.7 516.83-15.4L516.83-15.4Q517.33-15.5 517.48-15.5L517.48-15.5Q518.33-15.5 518.33-13.65L518.33-13.65Q518.83-14.15 520.38-14.6L520.38-14.6Q522.28-15.1 523.08-15.1L523.08-15.1Q524.88-15.1 526.2-14.08 527.53-13.05 527.53-11.3ZM524.98-11.8L524.98-11.8Q524.98-13.7 522.73-13.7 520.48-13.7 518.63-12.75L518.63-12.75Q517.78-12.35 513.93-8.35 510.08-4.35 510.08-3.2L510.08-3.2Q510.08-2.3 511.45-1.85 512.83-1.4 514.23-1.4L514.23-1.4Q516.98-1.4 520.98-4.53 524.98-7.65 524.98-11.8Z" opacity="1" transform="matrix(1,0,0,1,0,0)" fill="#000000" class="slogan-text-1" data-fill-palette-color="secondary" id="text-1"></path></svg></g></svg></g></svg></g></svg></g><g></g></svg></g><defs></defs></svg><rect width="395.5199999999999" height="75.06624850375103" fill="none" stroke="none" visibility="hidden"></rect></g></svg></g></svg>